name D:\PhD\Datasets\SharingData_IBEC_VALDUCE\HM_Comp_0001.mot
datacolumns 46
datarows 7
range 2.51000000 2.57000000
endheader
                time	         pelvis_tilt	     pelvis_rotation	           pelvis_tx	           pelvis_ty	           pelvis_tz	       hip_flexion_r	     hip_adduction_r	      hip_rotation_r	        knee_angle_r	       ankle_angle_r	    subtalar_angle_r	         mtp_angle_r	       hip_flexion_l	     hip_adduction_l	      hip_rotation_l	        knee_angle_l	       ankle_angle_l	    subtalar_angle_l	         mtp_angle_l	    lumbar_extension	      lumbar_bending	     lumbar_rotation	          arm_flex_r	           arm_add_r	           arm_rot_r	        elbow_flex_r	           pro_sup_r	        wrist_flex_r	         wrist_dev_r	          arm_flex_l	           arm_add_l	           arm_rot_l	        elbow_flex_l	           pro_sup_l	        wrist_flex_l	         wrist_dev_l	          end_eff_tx	          end_eff_ty	          end_eff_tz	             goal_tx	             goal_ty	             goal_tz	            elbow_tx	            elbow_ty	            elbow_tz	
          2.51000000	          0.00000000	          0.00000000	        349.80895899	        488.82863976	        390.31554396	          0.00000000	          0.00000000	          0.00000000	          0.00000000	          0.00000000	          0.00000000	          0.00000000	          0.00000000	          0.00000000	          0.00000000	          0.00000000	          0.00000000	          0.00000000	          0.00000000	         -8.48750877	          8.46124649	         -6.41038513	         40.50384903	        -30.13580322	         24.69275856	         91.34965515	         70.69821167	          0.00000000	          0.00000000	          0.00000000	          0.00000000	          0.00000000	          0.00000000	          0.00000000	          0.00000000	          0.00000000	        616.51224403	        528.00266585	        504.03591419	        587.25712017	        549.22209423	        434.74095084	        315.71889292	        325.86098047	        717.89791706	
          2.52000000	          0.00000000	          0.00000000	        349.80718326	        488.71315869	        390.45411678	          0.00000000	          0.00000000	          0.00000000	          0.00000000	          0.00000000	          0.00000000	          0.00000000	          0.00000000	          0.00000000	          0.00000000	          0.00000000	          0.00000000	          0.00000000	          0.00000000	         -8.48798084	          8.45935631	         -6.44181252	         41.13387299	        -29.97677231	         24.96058846	         91.30167389	         70.17877197	          0.00000000	          0.00000000	          0.00000000	          0.00000000	          0.00000000	          0.00000000	          0.00000000	          0.00000000	          0.00000000	        616.20203358	        531.75926105	        502.56862158	        585.34657964	        553.23810387	        433.02302395	        318.30454445	        327.06641606	        718.05941949	
          2.53000000	          0.00000000	          0.00000000	        349.80219325	        488.59320613	        390.60677246	          0.00000000	          0.00000000	          0.00000000	          0.00000000	          0.00000000	          0.00000000	          0.00000000	          0.00000000	          0.00000000	          0.00000000	          0.00000000	          0.00000000	          0.00000000	          0.00000000	         -8.51555157	          8.42945290	         -6.46927118	         41.69367981	        -29.67193413	         25.19164467	         91.31195068	         69.76914978	          0.00000000	          0.00000000	          0.00000000	          0.00000000	          0.00000000	          0.00000000	          0.00000000	          0.00000000	          0.00000000	        615.76794120	        535.43495308	        501.09936592	        583.45916227	        557.02405614	        431.32727377	        320.70341105	        328.26733362	        718.17832913	
          2.54000000	          0.00000000	          0.00000000	        349.79134155	        488.48629032	        390.76840047	          0.00000000	          0.00000000	          0.00000000	          0.00000000	          0.00000000	          0.00000000	          0.00000000	          0.00000000	          0.00000000	          0.00000000	          0.00000000	          0.00000000	          0.00000000	          0.00000000	         -8.65026188	          8.47961426	         -6.48903561	         42.39840317	        -29.51946068	         25.46236801	         91.34433746	         69.37637329	          0.00000000	          0.00000000	          0.00000000	          0.00000000	          0.00000000	          0.00000000	          0.00000000	          0.00000000	          0.00000000	        615.43016602	        538.98745091	        499.64034094	        581.65797517	        560.99453775	        429.86401742	        323.06325094	        329.49169457	        718.26731838	
          2.55000000	          0.00000000	          0.00000000	        349.79411352	        488.41509453	        390.90275220	          0.00000000	          0.00000000	          0.00000000	          0.00000000	          0.00000000	          0.00000000	          0.00000000	          0.00000000	          0.00000000	          0.00000000	          0.00000000	          0.00000000	          0.00000000	          0.00000000	         -8.68405628	          8.48765850	         -6.51288414	         43.02646637	        -29.38232040	         25.74217606	         91.33399200	         69.00363922	          0.00000000	          0.00000000	          0.00000000	          0.00000000	          0.00000000	          0.00000000	          0.00000000	          0.00000000	          0.00000000	        615.00289059	        542.52675096	        498.25782339	        579.72890280	        564.66790306	        428.36416961	        325.28245791	        330.87027050	        718.30469452	
          2.56000000	          0.00000000	          0.00000000	        349.76515103	        488.27050378	        391.04219258	          0.00000000	          0.00000000	          0.00000000	          0.00000000	          0.00000000	          0.00000000	          0.00000000	          0.00000000	          0.00000000	          0.00000000	          0.00000000	          0.00000000	          0.00000000	          0.00000000	         -8.64322567	          8.42701626	         -6.51879501	         43.41164398	        -29.12419701	         25.90777969	         91.35592651	         68.56674194	          0.00000000	          0.00000000	          0.00000000	          0.00000000	          0.00000000	          0.00000000	          0.00000000	          0.00000000	          0.00000000	        614.50146888	        545.93816716	        496.81577443	        578.00080309	        568.32199040	        427.10143485	        327.52878694	        332.19121776	        718.35468112	
          2.57000000	          0.00000000	          0.00000000	        349.74631227	        488.17190084	        391.17418910	          0.00000000	          0.00000000	          0.00000000	          0.00000000	          0.00000000	          0.00000000	          0.00000000	          0.00000000	          0.00000000	          0.00000000	          0.00000000	          0.00000000	          0.00000000	          0.00000000	         -8.61087036	          8.40419865	         -6.52697372	         43.95112991	        -28.97014236	         26.19216156	         91.38395691	         68.29161835	          0.00000000	          0.00000000	          0.00000000	          0.00000000	          0.00000000	          0.00000000	          0.00000000	          0.00000000	          0.00000000	        613.86434274	        549.33409750	        495.37694818	        576.06762831	        571.74003413	        425.76216654	        329.74322888	        333.47546868	        718.46893364	
